<?xml version='1.0' encoding='UTF-8'?>
<svg width="49mm" height="49mm" version="1.1" viewBox="0 0 49 49" fill_color="black" back_color="white" xmlns="http://www.w3.org/2000/svg"><path d="M2,2H3V3H2zM3,2H4V3H3zM4,2H5V3H4zM5,2H6V3H5zM6,2H7V3H6zM7,2H8V3H7zM8,2H9V3H8zM10,2H11V3H10zM12,2H13V3H12zM13,2H14V3H13zM15,2H16V3H15zM16,2H17V3H16zM17,2H18V3H17zM19,2H20V3H19zM21,2H22V3H21zM22,2H23V3H22zM23,2H24V3H23zM28,2H29V3H28zM30,2H31V3H30zM31,2H32V3H31zM32,2H33V3H32zM38,2H39V3H38zM40,2H41V3H40zM41,2H42V3H41zM42,2H43V3H42zM43,2H44V3H43zM44,2H45V3H44zM45,2H46V3H45zM46,2H47V3H46zM2,3H3V4H2zM8,3H9V4H8zM13,3H14V4H13zM14,3H15V4H14zM16,3H17V4H16zM19,3H20V4H19zM20,3H21V4H20zM23,3H24V4H23zM25,3H26V4H25zM26,3H27V4H26zM28,3H29V4H28zM29,3H30V4H29zM30,3H31V4H30zM34,3H35V4H34zM35,3H36V4H35zM37,3H38V4H37zM40,3H41V4H40zM46,3H47V4H46zM2,4H3V5H2zM4,4H5V5H4zM5,4H6V5H5zM6,4H7V5H6zM8,4H9V5H8zM11,4H12V5H11zM13,4H14V5H13zM17,4H18V5H17zM18,4H19V5H18zM20,4H21V5H20zM24,4H25V5H24zM26,4H27V5H26zM27,4H28V5H27zM28,4H29V5H28zM30,4H31V5H30zM34,4H35V5H34zM35,4H36V5H35zM37,4H38V5H37zM40,4H41V5H40zM42,4H43V5H42zM43,4H44V5H43zM44,4H45V5H44zM46,4H47V5H46zM2,5H3V6H2zM4,5H5V6H4zM5,5H6V6H5zM6,5H7V6H6zM8,5H9V6H8zM10,5H11V6H10zM11,5H12V6H11zM12,5H13V6H12zM13,5H14V6H13zM16,5H17V6H16zM19,5H20V6H19zM21,5H22V6H21zM22,5H23V6H22zM23,5H24V6H23zM24,5H25V6H24zM26,5H27V6H26zM28,5H29V6H28zM30,5H31V6H30zM31,5H32V6H31zM32,5H33V6H32zM33,5H34V6H33zM37,5H38V6H37zM38,5H39V6H38zM40,5H41V6H40zM42,5H43V6H42zM43,5H44V6H43zM44,5H45V6H44zM46,5H47V6H46zM2,6H3V7H2zM4,6H5V7H4zM5,6H6V7H5zM6,6H7V7H6zM8,6H9V7H8zM10,6H11V7H10zM11,6H12V7H11zM14,6H15V7H14zM15,6H16V7H15zM16,6H17V7H16zM17,6H18V7H17zM22,6H23V7H22zM23,6H24V7H23zM24,6H25V7H24zM25,6H26V7H25zM26,6H27V7H26zM31,6H32V7H31zM32,6H33V7H32zM33,6H34V7H33zM34,6H35V7H34zM35,6H36V7H35zM36,6H37V7H36zM37,6H38V7H37zM38,6H39V7H38zM40,6H41V7H40zM42,6H43V7H42zM43,6H44V7H43zM44,6H45V7H44zM46,6H47V7H46zM2,7H3V8H2zM8,7H9V8H8zM10,7H11V8H10zM13,7H14V8H13zM14,7H15V8H14zM15,7H16V8H15zM17,7H18V8H17zM20,7H21V8H20zM21,7H22V8H21zM22,7H23V8H22zM26,7H27V8H26zM27,7H28V8H27zM28,7H29V8H28zM29,7H30V8H29zM32,7H33V8H32zM33,7H34V8H33zM35,7H36V8H35zM40,7H41V8H40zM46,7H47V8H46zM2,8H3V9H2zM3,8H4V9H3zM4,8H5V9H4zM5,8H6V9H5zM6,8H7V9H6zM7,8H8V9H7zM8,8H9V9H8zM10,8H11V9H10zM12,8H13V9H12zM14,8H15V9H14zM16,8H17V9H16zM18,8H19V9H18zM20,8H21V9H20zM22,8H23V9H22zM24,8H25V9H24zM26,8H27V9H26zM28,8H29V9H28zM30,8H31V9H30zM32,8H33V9H32zM34,8H35V9H34zM36,8H37V9H36zM38,8H39V9H38zM40,8H41V9H40zM41,8H42V9H41zM42,8H43V9H42zM43,8H44V9H43zM44,8H45V9H44zM45,8H46V9H45zM46,8H47V9H46zM10,9H11V10H10zM12,9H13V10H12zM14,9H15V10H14zM16,9H17V10H16zM21,9H22V10H21zM22,9H23V10H22zM26,9H27V10H26zM27,9H28V10H27zM28,9H29V10H28zM29,9H30V10H29zM36,9H37V10H36zM2,10H3V11H2zM6,10H7V11H6zM8,10H9V11H8zM9,10H10V11H9zM10,10H11V11H10zM12,10H13V11H12zM17,10H18V11H17zM20,10H21V11H20zM21,10H22V11H21zM22,10H23V11H22zM23,10H24V11H23zM24,10H25V11H24zM25,10H26V11H25zM26,10H27V11H26zM27,10H28V11H27zM32,10H33V11H32zM34,10H35V11H34zM39,10H40V11H39zM40,10H41V11H40zM41,10H42V11H41zM42,10H43V11H42zM43,10H44V11H43zM46,10H47V11H46zM3,11H4V12H3zM4,11H5V12H4zM5,11H6V12H5zM9,11H10V12H9zM14,11H15V12H14zM19,11H20V12H19zM20,11H21V12H20zM23,11H24V12H23zM24,11H25V12H24zM26,11H27V12H26zM28,11H29V12H28zM29,11H30V12H29zM31,11H32V12H31zM32,11H33V12H32zM34,11H35V12H34zM35,11H36V12H35zM37,11H38V12H37zM38,11H39V12H38zM39,11H40V12H39zM40,11H41V12H40zM41,11H42V12H41zM42,11H43V12H42zM43,11H44V12H43zM4,12H5V13H4zM5,12H6V13H5zM6,12H7V13H6zM8,12H9V13H8zM10,12H11V13H10zM12,12H13V13H12zM13,12H14V13H13zM14,12H15V13H14zM18,12H19V13H18zM19,12H20V13H19zM24,12H25V13H24zM26,12H27V13H26zM28,12H29V13H28zM30,12H31V13H30zM31,12H32V13H31zM32,12H33V13H32zM33,12H34V13H33zM35,12H36V13H35zM37,12H38V13H37zM38,12H39V13H38zM39,12H40V13H39zM40,12H41V13H40zM41,12H42V13H41zM42,12H43V13H42zM44,12H45V13H44zM45,12H46V13H45zM3,13H4V14H3zM6,13H7V14H6zM7,13H8V14H7zM14,13H15V14H14zM16,13H17V14H16zM20,13H21V14H20zM21,13H22V14H21zM22,13H23V14H22zM24,13H25V14H24zM25,13H26V14H25zM26,13H27V14H26zM27,13H28V14H27zM29,13H30V14H29zM30,13H31V14H30zM31,13H32V14H31zM35,13H36V14H35zM36,13H37V14H36zM39,13H40V14H39zM2,14H3V15H2zM3,14H4V15H3zM4,14H5V15H4zM7,14H8V15H7zM8,14H9V15H8zM9,14H10V15H9zM11,14H12V15H11zM13,14H14V15H13zM14,14H15V15H14zM15,14H16V15H15zM18,14H19V15H18zM20,14H21V15H20zM21,14H22V15H21zM23,14H24V15H23zM24,14H25V15H24zM25,14H26V15H25zM27,14H28V15H27zM28,14H29V15H28zM31,14H32V15H31zM32,14H33V15H32zM34,14H35V15H34zM35,14H36V15H35zM37,14H38V15H37zM38,14H39V15H38zM39,14H40V15H39zM41,14H42V15H41zM45,14H46V15H45zM6,15H7V16H6zM7,15H8V16H7zM10,15H11V16H10zM14,15H15V16H14zM16,15H17V16H16zM18,15H19V16H18zM26,15H27V16H26zM28,15H29V16H28zM29,15H30V16H29zM30,15H31V16H30zM31,15H32V16H31zM32,15H33V16H32zM35,15H36V16H35zM37,15H38V16H37zM38,15H39V16H38zM40,15H41V16H40zM41,15H42V16H41zM42,15H43V16H42zM44,15H45V16H44zM45,15H46V16H45zM2,16H3V17H2zM5,16H6V17H5zM6,16H7V17H6zM8,16H9V17H8zM10,16H11V17H10zM11,16H12V17H11zM14,16H15V17H14zM15,16H16V17H15zM16,16H17V17H16zM19,16H20V17H19zM22,16H23V17H22zM24,16H25V17H24zM28,16H29V17H28zM30,16H31V17H30zM32,16H33V17H32zM35,16H36V17H35zM36,16H37V17H36zM37,16H38V17H37zM44,16H45V17H44zM45,16H46V17H45zM2,17H3V18H2zM4,17H5V18H4zM5,17H6V18H5zM9,17H10V18H9zM10,17H11V18H10zM13,17H14V18H13zM15,17H16V18H15zM19,17H20V18H19zM20,17H21V18H20zM21,17H22V18H21zM23,17H24V18H23zM24,17H25V18H24zM25,17H26V18H25zM26,17H27V18H26zM28,17H29V18H28zM29,17H30V18H29zM32,17H33V18H32zM34,17H35V18H34zM36,17H37V18H36zM37,17H38V18H37zM42,17H43V18H42zM45,17H46V18H45zM4,18H5V19H4zM6,18H7V19H6zM8,18H9V19H8zM9,18H10V19H9zM10,18H11V19H10zM11,18H12V19H11zM15,18H16V19H15zM16,18H17V19H16zM18,18H19V19H18zM20,18H21V19H20zM23,18H24V19H23zM26,18H27V19H26zM27,18H28V19H27zM28,18H29V19H28zM29,18H30V19H29zM31,18H32V19H31zM34,18H35V19H34zM41,18H42V19H41zM44,18H45V19H44zM45,18H46V19H45zM3,19H4V20H3zM4,19H5V20H4zM11,19H12V20H11zM13,19H14V20H13zM15,19H16V20H15zM19,19H20V20H19zM22,19H23V20H22zM23,19H24V20H23zM28,19H29V20H28zM29,19H30V20H29zM31,19H32V20H31zM32,19H33V20H32zM33,19H34V20H33zM35,19H36V20H35zM37,19H38V20H37zM38,19H39V20H38zM40,19H41V20H40zM42,19H43V20H42zM43,19H44V20H43zM44,19H45V20H44zM45,19H46V20H45zM46,19H47V20H46zM4,20H5V21H4zM5,20H6V21H5zM6,20H7V21H6zM8,20H9V21H8zM10,20H11V21H10zM11,20H12V21H11zM13,20H14V21H13zM16,20H17V21H16zM20,20H21V21H20zM21,20H22V21H21zM22,20H23V21H22zM23,20H24V21H23zM29,20H30V21H29zM30,20H31V21H30zM31,20H32V21H31zM32,20H33V21H32zM33,20H34V21H33zM34,20H35V21H34zM35,20H36V21H35zM36,20H37V21H36zM38,20H39V21H38zM45,20H46V21H45zM2,21H3V22H2zM4,21H5V22H4zM5,21H6V22H5zM6,21H7V22H6zM11,21H12V22H11zM13,21H14V22H13zM20,21H21V22H20zM21,21H22V22H21zM24,21H25V22H24zM26,21H27V22H26zM29,21H30V22H29zM30,21H31V22H30zM32,21H33V22H32zM34,21H35V22H34zM35,21H36V22H35zM36,21H37V22H36zM38,21H39V22H38zM41,21H42V22H41zM42,21H43V22H42zM45,21H46V22H45zM46,21H47V22H46zM4,22H5V23H4zM6,22H7V23H6zM7,22H8V23H7zM8,22H9V23H8zM9,22H10V23H9zM10,22H11V23H10zM14,22H15V23H14zM16,22H17V23H16zM17,22H18V23H17zM18,22H19V23H18zM19,22H20V23H19zM20,22H21V23H20zM22,22H23V23H22zM23,22H24V23H23zM24,22H25V23H24zM25,22H26V23H25zM26,22H27V23H26zM28,22H29V23H28zM29,22H30V23H29zM31,22H32V23H31zM34,22H35V23H34zM35,22H36V23H35zM36,22H37V23H36zM37,22H38V23H37zM38,22H39V23H38zM39,22H40V23H39zM40,22H41V23H40zM41,22H42V23H41zM42,22H43V23H42zM43,22H44V23H43zM46,22H47V23H46zM2,23H3V24H2zM3,23H4V24H3zM4,23H5V24H4zM6,23H7V24H6zM10,23H11V24H10zM11,23H12V24H11zM13,23H14V24H13zM14,23H15V24H14zM15,23H16V24H15zM17,23H18V24H17zM19,23H20V24H19zM21,23H22V24H21zM22,23H23V24H22zM26,23H27V24H26zM27,23H28V24H27zM28,23H29V24H28zM29,23H30V24H29zM31,23H32V24H31zM32,23H33V24H32zM35,23H36V24H35zM37,23H38V24H37zM38,23H39V24H38zM42,23H43V24H42zM43,23H44V24H43zM44,23H45V24H44zM45,23H46V24H45zM4,24H5V25H4zM6,24H7V25H6zM8,24H9V25H8zM10,24H11V25H10zM13,24H14V25H13zM17,24H18V25H17zM18,24H19V25H18zM20,24H21V25H20zM21,24H22V25H21zM22,24H23V25H22zM24,24H25V25H24zM26,24H27V25H26zM27,24H28V25H27zM30,24H31V25H30zM32,24H33V25H32zM38,24H39V25H38zM40,24H41V25H40zM42,24H43V25H42zM43,24H44V25H43zM5,25H6V26H5zM6,25H7V26H6zM10,25H11V26H10zM11,25H12V26H11zM13,25H14V26H13zM17,25H18V26H17zM18,25H19V26H18zM19,25H20V26H19zM20,25H21V26H20zM21,25H22V26H21zM22,25H23V26H22zM26,25H27V26H26zM29,25H30V26H29zM31,25H32V26H31zM33,25H34V26H33zM34,25H35V26H34zM37,25H38V26H37zM38,25H39V26H38zM42,25H43V26H42zM4,26H5V27H4zM5,26H6V27H5zM6,26H7V27H6zM7,26H8V27H7zM8,26H9V27H8zM9,26H10V27H9zM10,26H11V27H10zM14,26H15V27H14zM16,26H17V27H16zM18,26H19V27H18zM19,26H20V27H19zM21,26H22V27H21zM22,26H23V27H22zM23,26H24V27H23zM24,26H25V27H24zM25,26H26V27H25zM26,26H27V27H26zM29,26H30V27H29zM33,26H34V27H33zM34,26H35V27H34zM35,26H36V27H35zM36,26H37V27H36zM37,26H38V27H37zM38,26H39V27H38zM39,26H40V27H39zM40,26H41V27H40zM41,26H42V27H41zM42,26H43V27H42zM43,26H44V27H43zM46,26H47V27H46zM4,27H5V28H4zM5,27H6V28H5zM6,27H7V28H6zM9,27H10V28H9zM10,27H11V28H10zM11,27H12V28H11zM12,27H13V28H12zM13,27H14V28H13zM14,27H15V28H14zM16,27H17V28H16zM20,27H21V28H20zM24,27H25V28H24zM25,27H26V28H25zM28,27H29V28H28zM32,27H33V28H32zM34,27H35V28H34zM35,27H36V28H35zM37,27H38V28H37zM39,27H40V28H39zM41,27H42V28H41zM43,27H44V28H43zM44,27H45V28H44zM45,27H46V28H45zM2,28H3V29H2zM3,28H4V29H3zM5,28H6V29H5zM6,28H7V29H6zM8,28H9V29H8zM9,28H10V29H9zM10,28H11V29H10zM11,28H12V29H11zM12,28H13V29H12zM14,28H15V29H14zM16,28H17V29H16zM18,28H19V29H18zM25,28H26V29H25zM26,28H27V29H26zM28,28H29V29H28zM32,28H33V29H32zM35,28H36V29H35zM39,28H40V29H39zM42,28H43V29H42zM45,28H46V29H45zM2,29H3V30H2zM7,29H8V30H7zM9,29H10V30H9zM11,29H12V30H11zM13,29H14V30H13zM14,29H15V30H14zM16,29H17V30H16zM21,29H22V30H21zM24,29H25V30H24zM25,29H26V30H25zM29,29H30V30H29zM31,29H32V30H31zM34,29H35V30H34zM38,29H39V30H38zM40,29H41V30H40zM41,29H42V30H41zM42,29H43V30H42zM43,29H44V30H43zM45,29H46V30H45zM46,29H47V30H46zM3,30H4V31H3zM4,30H5V31H4zM5,30H6V31H5zM6,30H7V31H6zM7,30H8V31H7zM8,30H9V31H8zM10,30H11V31H10zM11,30H12V31H11zM13,30H14V31H13zM14,30H15V31H14zM15,30H16V31H15zM16,30H17V31H16zM17,30H18V31H17zM18,30H19V31H18zM20,30H21V31H20zM21,30H22V31H21zM25,30H26V31H25zM26,30H27V31H26zM28,30H29V31H28zM29,30H30V31H29zM34,30H35V31H34zM39,30H40V31H39zM41,30H42V31H41zM42,30H43V31H42zM2,31H3V32H2zM3,31H4V32H3zM4,31H5V32H4zM7,31H8V32H7zM11,31H12V32H11zM12,31H13V32H12zM13,31H14V32H13zM21,31H22V32H21zM22,31H23V32H22zM23,31H24V32H23zM24,31H25V32H24zM25,31H26V32H25zM28,31H29V32H28zM30,31H31V32H30zM31,31H32V32H31zM32,31H33V32H32zM34,31H35V32H34zM35,31H36V32H35zM37,31H38V32H37zM39,31H40V32H39zM41,31H42V32H41zM45,31H46V32H45zM2,32H3V33H2zM4,32H5V33H4zM8,32H9V33H8zM9,32H10V33H9zM13,32H14V33H13zM15,32H16V33H15zM16,32H17V33H16zM19,32H20V33H19zM20,32H21V33H20zM22,32H23V33H22zM23,32H24V33H23zM28,32H29V33H28zM31,32H32V33H31zM32,32H33V33H32zM33,32H34V33H33zM36,32H37V33H36zM37,32H38V33H37zM38,32H39V33H38zM41,32H42V33H41zM42,32H43V33H42zM43,32H44V33H43zM44,32H45V33H44zM45,32H46V33H45zM3,33H4V34H3zM4,33H5V34H4zM5,33H6V34H5zM6,33H7V34H6zM11,33H12V34H11zM13,33H14V34H13zM14,33H15V34H14zM18,33H19V34H18zM19,33H20V34H19zM23,33H24V34H23zM24,33H25V34H24zM25,33H26V34H25zM27,33H28V34H27zM32,33H33V34H32zM34,33H35V34H34zM36,33H37V34H36zM38,33H39V34H38zM40,33H41V34H40zM41,33H42V34H41zM42,33H43V34H42zM46,33H47V34H46zM4,34H5V35H4zM5,34H6V35H5zM6,34H7V35H6zM7,34H8V35H7zM8,34H9V35H8zM10,34H11V35H10zM11,34H12V35H11zM14,34H15V35H14zM15,34H16V35H15zM17,34H18V35H17zM19,34H20V35H19zM21,34H22V35H21zM23,34H24V35H23zM25,34H26V35H25zM26,34H27V35H26zM27,34H28V35H27zM28,34H29V35H28zM31,34H32V35H31zM33,34H34V35H33zM34,34H35V35H34zM36,34H37V35H36zM39,34H40V35H39zM40,34H41V35H40zM42,34H43V35H42zM46,34H47V35H46zM3,35H4V36H3zM4,35H5V36H4zM6,35H7V36H6zM10,35H11V36H10zM11,35H12V36H11zM13,35H14V36H13zM14,35H15V36H14zM17,35H18V36H17zM20,35H21V36H20zM21,35H22V36H21zM24,35H25V36H24zM26,35H27V36H26zM28,35H29V36H28zM29,35H30V36H29zM31,35H32V36H31zM32,35H33V36H32zM35,35H36V36H35zM38,35H39V36H38zM40,35H41V36H40zM41,35H42V36H41zM43,35H44V36H43zM44,35H45V36H44zM45,35H46V36H45zM46,35H47V36H46zM6,36H7V37H6zM8,36H9V37H8zM10,36H11V37H10zM13,36H14V37H13zM15,36H16V37H15zM16,36H17V37H16zM19,36H20V37H19zM20,36H21V37H20zM26,36H27V37H26zM28,36H29V37H28zM31,36H32V37H31zM32,36H33V37H32zM36,36H37V37H36zM39,36H40V37H39zM41,36H42V37H41zM44,36H45V37H44zM45,36H46V37H45zM3,37H4V38H3zM4,37H5V38H4zM5,37H6V38H5zM6,37H7V38H6zM10,37H11V38H10zM12,37H13V38H12zM13,37H14V38H13zM15,37H16V38H15zM17,37H18V38H17zM18,37H19V38H18zM19,37H20V38H19zM20,37H21V38H20zM21,37H22V38H21zM22,37H23V38H22zM23,37H24V38H23zM27,37H28V38H27zM28,37H29V38H28zM31,37H32V38H31zM33,37H34V38H33zM34,37H35V38H34zM35,37H36V38H35zM36,37H37V38H36zM42,37H43V38H42zM45,37H46V38H45zM46,37H47V38H46zM2,38H3V39H2zM5,38H6V39H5zM6,38H7V39H6zM8,38H9V39H8zM11,38H12V39H11zM12,38H13V39H12zM14,38H15V39H14zM15,38H16V39H15zM16,38H17V39H16zM17,38H18V39H17zM18,38H19V39H18zM21,38H22V39H21zM22,38H23V39H22zM23,38H24V39H23zM24,38H25V39H24zM25,38H26V39H25zM26,38H27V39H26zM27,38H28V39H27zM29,38H30V39H29zM31,38H32V39H31zM32,38H33V39H32zM34,38H35V39H34zM38,38H39V39H38zM39,38H40V39H39zM40,38H41V39H40zM41,38H42V39H41zM42,38H43V39H42zM45,38H46V39H45zM46,38H47V39H46zM10,39H11V40H10zM11,39H12V40H11zM12,39H13V40H12zM14,39H15V40H14zM16,39H17V40H16zM17,39H18V40H17zM19,39H20V40H19zM21,39H22V40H21zM22,39H23V40H22zM26,39H27V40H26zM29,39H30V40H29zM30,39H31V40H30zM31,39H32V40H31zM32,39H33V40H32zM34,39H35V40H34zM37,39H38V40H37zM38,39H39V40H38zM42,39H43V40H42zM43,39H44V40H43zM44,39H45V40H44zM45,39H46V40H45zM2,40H3V41H2zM3,40H4V41H3zM4,40H5V41H4zM5,40H6V41H5zM6,40H7V41H6zM7,40H8V41H7zM8,40H9V41H8zM10,40H11V41H10zM11,40H12V41H11zM12,40H13V41H12zM13,40H14V41H13zM15,40H16V41H15zM20,40H21V41H20zM22,40H23V41H22zM24,40H25V41H24zM26,40H27V41H26zM31,40H32V41H31zM33,40H34V41H33zM34,40H35V41H34zM38,40H39V41H38zM40,40H41V41H40zM42,40H43V41H42zM43,40H44V41H43zM45,40H46V41H45zM2,41H3V42H2zM8,41H9V42H8zM13,41H14V42H13zM14,41H15V42H14zM15,41H16V42H15zM16,41H17V42H16zM20,41H21V42H20zM21,41H22V42H21zM22,41H23V42H22zM26,41H27V42H26zM27,41H28V42H27zM28,41H29V42H28zM29,41H30V42H29zM31,41H32V42H31zM34,41H35V42H34zM35,41H36V42H35zM36,41H37V42H36zM38,41H39V42H38zM42,41H43V42H42zM45,41H46V42H45zM46,41H47V42H46zM2,42H3V43H2zM4,42H5V43H4zM5,42H6V43H5zM6,42H7V43H6zM8,42H9V43H8zM10,42H11V43H10zM12,42H13V43H12zM17,42H18V43H17zM18,42H19V43H18zM19,42H20V43H19zM20,42H21V43H20zM21,42H22V43H21zM22,42H23V43H22zM23,42H24V43H23zM24,42H25V43H24zM25,42H26V43H25zM26,42H27V43H26zM29,42H30V43H29zM34,42H35V43H34zM35,42H36V43H35zM36,42H37V43H36zM37,42H38V43H37zM38,42H39V43H38zM39,42H40V43H39zM40,42H41V43H40zM41,42H42V43H41zM42,42H43V43H42zM43,42H44V43H43zM2,43H3V44H2zM4,43H5V44H4zM5,43H6V44H5zM6,43H7V44H6zM8,43H9V44H8zM11,43H12V44H11zM14,43H15V44H14zM15,43H16V44H15zM16,43H17V44H16zM21,43H22V44H21zM23,43H24V44H23zM24,43H25V44H24zM28,43H29V44H28zM29,43H30V44H29zM30,43H31V44H30zM31,43H32V44H31zM32,43H33V44H32zM34,43H35V44H34zM35,43H36V44H35zM37,43H38V44H37zM43,43H44V44H43zM45,43H46V44H45zM2,44H3V45H2zM4,44H5V45H4zM5,44H6V45H5zM6,44H7V45H6zM8,44H9V45H8zM11,44H12V45H11zM12,44H13V45H12zM14,44H15V45H14zM15,44H16V45H15zM16,44H17V45H16zM17,44H18V45H17zM19,44H20V45H19zM20,44H21V45H20zM23,44H24V45H23zM24,44H25V45H24zM28,44H29V45H28zM30,44H31V45H30zM31,44H32V45H31zM32,44H33V45H32zM34,44H35V45H34zM37,44H38V45H37zM40,44H41V45H40zM42,44H43V45H42zM44,44H45V45H44zM45,44H46V45H45zM2,45H3V46H2zM8,45H9V46H8zM11,45H12V46H11zM13,45H14V46H13zM18,45H19V46H18zM21,45H22V46H21zM22,45H23V46H22zM27,45H28V46H27zM28,45H29V46H28zM29,45H30V46H29zM31,45H32V46H31zM32,45H33V46H32zM34,45H35V46H34zM35,45H36V46H35zM36,45H37V46H36zM39,45H40V46H39zM42,45H43V46H42zM43,45H44V46H43zM2,46H3V47H2zM3,46H4V47H3zM4,46H5V47H4zM5,46H6V47H5zM6,46H7V47H6zM7,46H8V47H7zM8,46H9V47H8zM10,46H11V47H10zM11,46H12V47H11zM13,46H14V47H13zM16,46H17V47H16zM17,46H18V47H17zM19,46H20V47H19zM22,46H23V47H22zM23,46H24V47H23zM24,46H25V47H24zM25,46H26V47H25zM26,46H27V47H26zM29,46H30V47H29zM31,46H32V47H31zM32,46H33V47H32zM34,46H35V47H34zM35,46H36V47H35zM36,46H37V47H36zM37,46H38V47H37zM39,46H40V47H39zM42,46H43V47H42zM43,46H44V47H43zM46,46H47V47H46z" id="qr-path" fill="#000000" fill-opacity="1" fill-rule="nonzero" stroke="none"/></svg>